<svg xmlns="http://www.w3.org/2000/svg" xmlns:xlink="http://www.w3.org/1999/xlink" contentStyleType="text/css" data-diagram-type="SEQUENCE" height="890px" preserveAspectRatio="none" style="width:1803px;height:890px;background:#FFFFFF;" version="1.1" viewBox="0 0 1803 890" width="1803px" zoomAndPan="magnify"><?plantuml 1.2026.6?><defs/><g><g class="title" data-source-line="1"><text fill="#000000" font-family="sans-serif" font-size="14" font-weight="700" lengthAdjust="spacing" textLength="459.9082" x="668.0974" y="27.9951">Dromos - Edit a saved route and recalculate automatically</text></g><rect fill="none" height="179.6016" style="stroke:#000000;stroke-width:1.5;" width="1038.9951" x="748.1079" y="386.6563"/><rect fill="none" height="46.2656" style="stroke:#000000;stroke-width:1.5;" width="517.4878" x="1259.6152" y="512.9922"/><g class="participant-lifeline" data-entity-uid="part1" data-qualified-name="User" data-source-line="5" id="part1-lifeline"><g><title>User</title><rect fill="#000000" fill-opacity="0.00000" height="689.7266" width="8" x="19.9551" y="118.5938"/><line style="stroke:#181818;stroke-width:0.5;stroke-dasharray:5,5;" x1="23" x2="23" y1="118.5938" y2="808.3203"/></g></g><g class="participant-lifeline" data-entity-uid="part2" data-qualified-name="UI" data-source-line="6" id="part2-lifeline"><g><title>Route workspace</title><rect fill="#000000" fill-opacity="0.00000" height="689.7266" width="8" x="362.2783" y="118.5938"/><line style="stroke:#181818;stroke-width:0.5;stroke-dasharray:5,5;" x1="365.9443" x2="365.9443" y1="118.5938" y2="808.3203"/></g></g><g class="participant-lifeline" data-entity-uid="part3" data-qualified-name="RoutePlanController" data-source-line="7" id="part3-lifeline"><g><title>RoutePlanController</title><rect fill="#000000" fill-opacity="0.00000" height="689.7266" width="8" x="636.25" y="118.5938"/><line style="stroke:#181818;stroke-width:0.5;stroke-dasharray:5,5;" x1="640.1372" x2="640.1372" y1="118.5938" y2="808.3203"/></g></g><g class="participant-lifeline" data-entity-uid="part4" data-qualified-name="Action" data-source-line="8" id="part4-lifeline"><g><title>Route mutation action</title><rect fill="#000000" fill-opacity="0.00000" height="689.7266" width="8" x="835.4375" y="118.5938"/><line style="stroke:#181818;stroke-width:0.5;stroke-dasharray:5,5;" x1="839.1079" x2="839.1079" y1="118.5938" y2="808.3203"/></g></g><g class="participant-lifeline" data-entity-uid="part5" data-qualified-name="MySQL" data-source-line="9" id="part5-lifeline"><g><title>MySQL</title><rect fill="#000000" fill-opacity="0.00000" height="689.7266" width="8" x="1228.5801" y="118.5938"/><line style="stroke:#181818;stroke-width:0.5;stroke-dasharray:5,5;" x1="1232.5449" x2="1232.5449" y1="118.5938" y2="808.3203"/></g></g><g class="participant-lifeline" data-entity-uid="part6" data-qualified-name="Calculator" data-source-line="10" id="part6-lifeline"><g><title>RouteOptimizer . CalculateOrderedRoute</title><rect fill="#000000" fill-opacity="0.00000" height="689.7266" width="8" x="1416.416" y="118.5938"/><line style="stroke:#181818;stroke-width:0.5;stroke-dasharray:5,5;" x1="1419.6152" x2="1419.6152" y1="118.5938" y2="808.3203"/></g></g><g class="participant-lifeline" data-entity-uid="part7" data-qualified-name="RoutesAPI" data-source-line="11" id="part7-lifeline"><g><title>Google Routes API</title><rect fill="#000000" fill-opacity="0.00000" height="689.7266" width="8" x="1691.6128" y="118.5938"/><line style="stroke:#181818;stroke-width:0.5;stroke-dasharray:5,5;" x1="1695.1226" x2="1695.1226" y1="118.5938" y2="808.3203"/></g></g><g class="participant participant-head" data-entity-uid="part1" data-qualified-name="User" data-source-line="5" id="part1-head"><text fill="#000000" font-family="sans-serif" font-size="14" lengthAdjust="spacing" textLength="31.9102" x="5" y="115.292">User</text><ellipse cx="23.9551" cy="50.7969" fill="#E2E2F0" rx="8" ry="8" style="stroke:#181818;stroke-width:0.5;"/><path d="M23.9551,58.7969 L23.9551,85.7969 M10.9551,66.7969 L36.9551,66.7969 M23.9551,85.7969 L10.9551,100.7969 M23.9551,85.7969 L36.9551,100.7969" fill="none" style="stroke:#181818;stroke-width:0.5;"/></g><g class="participant participant-tail" data-entity-uid="part1" data-qualified-name="User" data-source-line="5" id="part1-tail"><text fill="#000000" font-family="sans-serif" font-size="14" lengthAdjust="spacing" textLength="31.9102" x="5" y="820.3154">User</text><ellipse cx="23.9551" cy="832.1172" fill="#E2E2F0" rx="8" ry="8" style="stroke:#181818;stroke-width:0.5;"/><path d="M23.9551,840.1172 L23.9551,867.1172 M10.9551,848.1172 L36.9551,848.1172 M23.9551,867.1172 L10.9551,882.1172 M23.9551,867.1172 L36.9551,882.1172" fill="none" style="stroke:#181818;stroke-width:0.5;"/></g><g class="participant participant-head" data-entity-uid="part2" data-qualified-name="UI" data-source-line="6" id="part2-head"><text fill="#000000" font-family="sans-serif" font-size="14" lengthAdjust="spacing" textLength="120.668" x="302.9443" y="115.292">Route workspace</text><path d="M345.7783,74.2969 L345.7783,98.2969 M345.7783,86.2969 L362.7783,86.2969" fill="none" style="stroke:#181818;stroke-width:0.5;"/><ellipse cx="374.7783" cy="86.2969" fill="#E2E2F0" rx="12" ry="12" style="stroke:#181818;stroke-width:0.5;"/></g><g class="participant participant-tail" data-entity-uid="part2" data-qualified-name="UI" data-source-line="6" id="part2-tail"><text fill="#000000" font-family="sans-serif" font-size="14" lengthAdjust="spacing" textLength="120.668" x="302.9443" y="820.3154">Route workspace</text><path d="M345.7783,827.6172 L345.7783,851.6172 M345.7783,839.6172 L362.7783,839.6172" fill="none" style="stroke:#181818;stroke-width:0.5;"/><ellipse cx="374.7783" cy="839.6172" fill="#E2E2F0" rx="12" ry="12" style="stroke:#181818;stroke-width:0.5;"/></g><g class="participant participant-head" data-entity-uid="part3" data-qualified-name="RoutePlanController" data-source-line="7" id="part3-head"><text fill="#000000" font-family="sans-serif" font-size="14" lengthAdjust="spacing" textLength="140.2256" x="567.1372" y="115.292">RoutePlanController</text><ellipse cx="640.25" cy="86.2969" fill="#E2E2F0" rx="12" ry="12" style="stroke:#181818;stroke-width:0.5;"/><polygon fill="#181818" points="636.25,74.2969,642.25,69.2969,640.25,74.2969,642.25,79.2969,636.25,74.2969" style="stroke:#181818;stroke-width:1;stroke-linejoin:miter;stroke-miterlimit:10;"/></g><g class="participant participant-tail" data-entity-uid="part3" data-qualified-name="RoutePlanController" data-source-line="7" id="part3-tail"><text fill="#000000" font-family="sans-serif" font-size="14" lengthAdjust="spacing" textLength="140.2256" x="567.1372" y="820.3154">RoutePlanController</text><ellipse cx="640.25" cy="839.6172" fill="#E2E2F0" rx="12" ry="12" style="stroke:#181818;stroke-width:0.5;"/><polygon fill="#181818" points="636.25,827.6172,642.25,822.6172,640.25,827.6172,642.25,832.6172,636.25,827.6172" style="stroke:#181818;stroke-width:1;stroke-linejoin:miter;stroke-miterlimit:10;"/></g><g class="participant participant-head" data-entity-uid="part4" data-qualified-name="Action" data-source-line="8" id="part4-head"><text fill="#000000" font-family="sans-serif" font-size="14" lengthAdjust="spacing" textLength="156.6592" x="758.1079" y="115.292">Route mutation action</text><ellipse cx="839.4375" cy="86.2969" fill="#E2E2F0" rx="12" ry="12" style="stroke:#181818;stroke-width:0.5;"/><polygon fill="#181818" points="835.4375,74.2969,841.4375,69.2969,839.4375,74.2969,841.4375,79.2969,835.4375,74.2969" style="stroke:#181818;stroke-width:1;stroke-linejoin:miter;stroke-miterlimit:10;"/></g><g class="participant participant-tail" data-entity-uid="part4" data-qualified-name="Action" data-source-line="8" id="part4-tail"><text fill="#000000" font-family="sans-serif" font-size="14" lengthAdjust="spacing" textLength="156.6592" x="758.1079" y="820.3154">Route mutation action</text><ellipse cx="839.4375" cy="839.6172" fill="#E2E2F0" rx="12" ry="12" style="stroke:#181818;stroke-width:0.5;"/><polygon fill="#181818" points="835.4375,827.6172,841.4375,822.6172,839.4375,827.6172,841.4375,832.6172,835.4375,827.6172" style="stroke:#181818;stroke-width:1;stroke-linejoin:miter;stroke-miterlimit:10;"/></g><g class="participant participant-head" data-entity-uid="part5" data-qualified-name="MySQL" data-source-line="9" id="part5-head"><text fill="#000000" font-family="sans-serif" font-size="14" lengthAdjust="spacing" textLength="48.0703" x="1205.5449" y="115.292">MySQL</text><path d="M1214.5801,66.2969 C1214.5801,56.2969 1232.5801,56.2969 1232.5801,56.2969 C1232.5801,56.2969 1250.5801,56.2969 1250.5801,66.2969 L1250.5801,92.2969 C1250.5801,102.2969 1232.5801,102.2969 1232.5801,102.2969 C1232.5801,102.2969 1214.5801,102.2969 1214.5801,92.2969 L1214.5801,66.2969" fill="#E2E2F0" style="stroke:#181818;stroke-width:0.5;"/><path d="M1214.5801,66.2969 C1214.5801,76.2969 1232.5801,76.2969 1232.5801,76.2969 C1232.5801,76.2969 1250.5801,76.2969 1250.5801,66.2969" fill="none" style="stroke:#181818;stroke-width:0.5;"/></g><g class="participant participant-tail" data-entity-uid="part5" data-qualified-name="MySQL" data-source-line="9" id="part5-tail"><text fill="#000000" font-family="sans-serif" font-size="14" lengthAdjust="spacing" textLength="48.0703" x="1205.5449" y="820.3154">MySQL</text><path d="M1214.5801,833.6172 C1214.5801,823.6172 1232.5801,823.6172 1232.5801,823.6172 C1232.5801,823.6172 1250.5801,823.6172 1250.5801,833.6172 L1250.5801,859.6172 C1250.5801,869.6172 1232.5801,869.6172 1232.5801,869.6172 C1232.5801,869.6172 1214.5801,869.6172 1214.5801,859.6172 L1214.5801,833.6172" fill="#E2E2F0" style="stroke:#181818;stroke-width:0.5;"/><path d="M1214.5801,833.6172 C1214.5801,843.6172 1232.5801,843.6172 1232.5801,843.6172 C1232.5801,843.6172 1250.5801,843.6172 1250.5801,833.6172" fill="none" style="stroke:#181818;stroke-width:0.5;"/></g><g class="participant participant-head" data-entity-uid="part6" data-qualified-name="Calculator" data-source-line="10" id="part6-head"><rect fill="#E2E2F0" height="30.2969" rx="2.5" ry="2.5" style="stroke:#181818;stroke-width:0.5;" width="301.6016" x="1269.6152" y="87.2969"/><text fill="#000000" font-family="sans-serif" font-size="14" lengthAdjust="spacing" textLength="287.6016" x="1276.6152" y="107.292">RouteOptimizer / CalculateOrderedRoute</text></g><g class="participant participant-tail" data-entity-uid="part6" data-qualified-name="Calculator" data-source-line="10" id="part6-tail"><rect fill="#E2E2F0" height="30.2969" rx="2.5" ry="2.5" style="stroke:#181818;stroke-width:0.5;" width="301.6016" x="1269.6152" y="807.3203"/><text fill="#000000" font-family="sans-serif" font-size="14" lengthAdjust="spacing" textLength="287.6016" x="1276.6152" y="827.3154">RouteOptimizer / CalculateOrderedRoute</text></g><g class="participant participant-head" data-entity-uid="part7" data-qualified-name="RoutesAPI" data-source-line="11" id="part7-head"><rect fill="#E2E2F0" height="30.2969" rx="2.5" ry="2.5" style="stroke:#181818;stroke-width:0.5;" width="142.9805" x="1624.1226" y="87.2969"/><text fill="#000000" font-family="sans-serif" font-size="14" lengthAdjust="spacing" textLength="128.9805" x="1631.1226" y="107.292">Google Routes API</text></g><g class="participant participant-tail" data-entity-uid="part7" data-qualified-name="RoutesAPI" data-source-line="11" id="part7-tail"><rect fill="#E2E2F0" height="30.2969" rx="2.5" ry="2.5" style="stroke:#181818;stroke-width:0.5;" width="142.9805" x="1624.1226" y="807.3203"/><text fill="#000000" font-family="sans-serif" font-size="14" lengthAdjust="spacing" textLength="128.9805" x="1631.1226" y="827.3154">Google Routes API</text></g><g class="message" data-entity-1="part1" data-entity-2="part2" data-source-line="13" id="msg1"><polygon fill="#181818" points="354.2783,145.7266,364.2783,149.7266,354.2783,153.7266,358.2783,149.7266" style="stroke:#181818;stroke-width:1;stroke-linejoin:miter;stroke-miterlimit:10;"/><line style="stroke:#181818;stroke-width:1;" x1="23.9551" x2="360.2783" y1="149.7266" y2="149.7266"/><text fill="#000000" font-family="sans-serif" font-size="13" font-weight="700" lengthAdjust="spacing" textLength="9.0454" x="30.9551" y="144.6606">1</text><text fill="#000000" font-family="sans-serif" font-size="13" lengthAdjust="spacing" textLength="303.9575" x="44.0005" y="144.6606">Drag/drop, move, add, update or delete a stop</text></g><g class="message" data-entity-1="part2" data-entity-2="part3" data-source-line="14" id="msg2"><polygon fill="#181818" points="628.25,174.8594,638.25,178.8594,628.25,182.8594,632.25,178.8594" style="stroke:#181818;stroke-width:1;stroke-linejoin:miter;stroke-miterlimit:10;"/><line style="stroke:#181818;stroke-width:1;" x1="366.2783" x2="634.25" y1="178.8594" y2="178.8594"/><text fill="#000000" font-family="sans-serif" font-size="13" font-weight="700" lengthAdjust="spacing" textLength="9.0454" x="373.2783" y="173.7935">2</text><text fill="#000000" font-family="sans-serif" font-size="13" lengthAdjust="spacing" textLength="236.9263" x="386.3237" y="173.7935">PATCH/POST/DELETE route endpoint</text></g><g class="message" data-entity-1="part3" data-entity-2="part3" data-source-line="15" id="msg3"><line style="stroke:#181818;stroke-width:1;" x1="640.25" x2="682.25" y1="207.9922" y2="207.9922"/><line style="stroke:#181818;stroke-width:1;" x1="682.25" x2="682.25" y1="207.9922" y2="220.9922"/><line style="stroke:#181818;stroke-width:1;" x1="641.25" x2="682.25" y1="220.9922" y2="220.9922"/><polygon fill="#181818" points="651.25,216.9922,641.25,220.9922,651.25,224.9922,647.25,220.9922" style="stroke:#181818;stroke-width:1;stroke-linejoin:miter;stroke-miterlimit:10;"/><text fill="#000000" font-family="sans-serif" font-size="13" font-weight="700" lengthAdjust="spacing" textLength="9.0454" x="647.25" y="202.9263">3</text><text fill="#000000" font-family="sans-serif" font-size="13" lengthAdjust="spacing" textLength="90.9683" x="660.2954" y="202.9263">Validate input</text></g><g class="message" data-entity-1="part3" data-entity-2="part3" data-source-line="16" id="msg4"><line style="stroke:#181818;stroke-width:1;" x1="640.25" x2="682.25" y1="250.125" y2="250.125"/><line style="stroke:#181818;stroke-width:1;" x1="682.25" x2="682.25" y1="250.125" y2="263.125"/><line style="stroke:#181818;stroke-width:1;" x1="641.25" x2="682.25" y1="263.125" y2="263.125"/><polygon fill="#181818" points="651.25,259.125,641.25,263.125,651.25,267.125,647.25,263.125" style="stroke:#181818;stroke-width:1;stroke-linejoin:miter;stroke-miterlimit:10;"/><text fill="#000000" font-family="sans-serif" font-size="13" font-weight="700" lengthAdjust="spacing" textLength="9.0454" x="647.25" y="245.0591">4</text><text fill="#000000" font-family="sans-serif" font-size="13" lengthAdjust="spacing" textLength="172.1421" x="660.2954" y="245.0591">Authorize route ownership</text></g><g class="message" data-entity-1="part3" data-entity-2="part4" data-source-line="17" id="msg5"><polygon fill="#181818" points="827.4375,288.2578,837.4375,292.2578,827.4375,296.2578,831.4375,292.2578" style="stroke:#181818;stroke-width:1;stroke-linejoin:miter;stroke-miterlimit:10;"/><line style="stroke:#181818;stroke-width:1;" x1="640.25" x2="833.4375" y1="292.2578" y2="292.2578"/><text fill="#000000" font-family="sans-serif" font-size="13" font-weight="700" lengthAdjust="spacing" textLength="9.0454" x="647.25" y="287.1919">5</text><text fill="#000000" font-family="sans-serif" font-size="13" lengthAdjust="spacing" textLength="153.0547" x="660.2954" y="287.1919">execute(route, change)</text></g><g class="message" data-entity-1="part4" data-entity-2="part5" data-source-line="19" id="msg6"><polygon fill="#181818" points="1220.5801,317.3906,1230.5801,321.3906,1220.5801,325.3906,1224.5801,321.3906" style="stroke:#181818;stroke-width:1;stroke-linejoin:miter;stroke-miterlimit:10;"/><line style="stroke:#181818;stroke-width:1;" x1="839.4375" x2="1226.5801" y1="321.3906" y2="321.3906"/><text fill="#000000" font-family="sans-serif" font-size="13" font-weight="700" lengthAdjust="spacing" textLength="9.0454" x="846.4375" y="316.3247">6</text><text fill="#000000" font-family="sans-serif" font-size="13" lengthAdjust="spacing" textLength="263.2246" x="859.4829" y="316.3247">load route and existing stop coordinates</text></g><path d="M1237,334.3906 L1237,374.3906 L1639,374.3906 L1639,344.3906 L1629,334.3906 L1237,334.3906" fill="#FEFFDD" style="stroke:#181818;stroke-width:0.5;"/><path d="M1629,334.3906 L1629,344.3906 L1639,344.3906 L1629,334.3906" fill="#FEFFDD" style="stroke:#181818;stroke-width:0.5;"/><text fill="#000000" font-family="sans-serif" font-size="13" lengthAdjust="spacing" textLength="283.4673" x="1243" y="351.4575">Unchanged stops reuse stored coordinates.</text><text fill="#000000" font-family="sans-serif" font-size="13" lengthAdjust="spacing" textLength="381.5005" x="1243" y="366.5903">Only a newly added or changed address needs geocoding.</text><path d="M748.1079,386.6563 L812.5508,386.6563 L812.5508,393.7891 L802.5508,403.7891 L748.1079,403.7891 L748.1079,386.6563" fill="#EEEEEE" style="stroke:#000000;stroke-width:1.5;"/><rect fill="none" height="179.6016" style="stroke:#000000;stroke-width:1.5;" width="1038.9951" x="748.1079" y="386.6563"/><text fill="#000000" font-family="sans-serif" font-size="13" font-weight="700" lengthAdjust="spacing" textLength="19.4429" x="763.1079" y="399.7231">alt</text><text fill="#000000" font-family="sans-serif" font-size="11" font-weight="700" lengthAdjust="spacing" textLength="110.6392" x="827.5508" y="398.8667">[Optimized route]</text><g class="message" data-entity-1="part4" data-entity-2="part6" data-source-line="26" id="msg7"><polygon fill="#181818" points="1408.416,420.9219,1418.416,424.9219,1408.416,428.9219,1412.416,424.9219" style="stroke:#181818;stroke-width:1;stroke-linejoin:miter;stroke-miterlimit:10;"/><line style="stroke:#181818;stroke-width:1;" x1="839.4375" x2="1414.416" y1="424.9219" y2="424.9219"/><text fill="#000000" font-family="sans-serif" font-size="13" font-weight="700" lengthAdjust="spacing" textLength="9.0454" x="846.4375" y="419.856">7</text><text fill="#000000" font-family="sans-serif" font-size="13" lengthAdjust="spacing" textLength="255.2837" x="859.4829" y="419.856">calculate current forced order / options</text></g><g class="message" data-entity-1="part6" data-entity-2="part7" data-source-line="27" id="msg8"><polygon fill="#181818" points="1683.6128,450.0547,1693.6128,454.0547,1683.6128,458.0547,1687.6128,454.0547" style="stroke:#181818;stroke-width:1;stroke-linejoin:miter;stroke-miterlimit:10;"/><line style="stroke:#181818;stroke-width:1;" x1="1420.416" x2="1689.6128" y1="454.0547" y2="454.0547"/><text fill="#000000" font-family="sans-serif" font-size="13" font-weight="700" lengthAdjust="spacing" textLength="9.0454" x="1427.416" y="448.9888">8</text><text fill="#000000" font-family="sans-serif" font-size="13" lengthAdjust="spacing" textLength="150.998" x="1440.4614" y="448.9888">one road-route request</text></g><line style="stroke:#000000;stroke-width:1;stroke-dasharray:2,2;" x1="748.1079" x2="1787.103" y1="463.0547" y2="463.0547"/><text fill="#000000" font-family="sans-serif" font-size="11" font-weight="700" lengthAdjust="spacing" textLength="114.0176" x="753.1079" y="473.2651">[Sequential route]</text><g class="message" data-entity-1="part4" data-entity-2="part6" data-source-line="29" id="msg9"><polygon fill="#181818" points="1408.416,493.9922,1418.416,497.9922,1408.416,501.9922,1412.416,497.9922" style="stroke:#181818;stroke-width:1;stroke-linejoin:miter;stroke-miterlimit:10;"/><line style="stroke:#181818;stroke-width:1;" x1="839.4375" x2="1414.416" y1="497.9922" y2="497.9922"/><text fill="#000000" font-family="sans-serif" font-size="13" font-weight="700" lengthAdjust="spacing" textLength="9.0454" x="846.4375" y="492.9263">9</text><text fill="#000000" font-family="sans-serif" font-size="13" lengthAdjust="spacing" textLength="186.3164" x="859.4829" y="492.9263">calculate in exact user order</text></g><path d="M1259.6152,512.9922 L1336.2393,512.9922 L1336.2393,520.125 L1326.2393,530.125 L1259.6152,530.125 L1259.6152,512.9922" fill="#EEEEEE" style="stroke:#000000;stroke-width:1.5;"/><rect fill="none" height="46.2656" style="stroke:#000000;stroke-width:1.5;" width="517.4878" x="1259.6152" y="512.9922"/><text fill="#000000" font-family="sans-serif" font-size="13" font-weight="700" lengthAdjust="spacing" textLength="31.624" x="1274.6152" y="526.0591">loop</text><text fill="#000000" font-family="sans-serif" font-size="11" font-weight="700" lengthAdjust="spacing" textLength="295.1201" x="1351.2393" y="525.2026">[Each overlapping section of at most 12 points]</text><g class="message" data-entity-1="part6" data-entity-2="part7" data-source-line="31" id="msg10"><polygon fill="#181818" points="1683.6128,547.2578,1693.6128,551.2578,1683.6128,555.2578,1687.6128,551.2578" style="stroke:#181818;stroke-width:1;stroke-linejoin:miter;stroke-miterlimit:10;"/><line style="stroke:#181818;stroke-width:1;" x1="1420.416" x2="1689.6128" y1="551.2578" y2="551.2578"/><text fill="#000000" font-family="sans-serif" font-size="13" font-weight="700" lengthAdjust="spacing" textLength="18.0908" x="1427.416" y="546.1919">10</text><text fill="#000000" font-family="sans-serif" font-size="13" lengthAdjust="spacing" textLength="122.6748" x="1449.5068" y="546.1919">road-route request</text></g><g class="message" data-entity-1="part7" data-entity-2="part6" data-source-line="35" id="msg11"><polygon fill="#181818" points="1431.416,590.3906,1421.416,594.3906,1431.416,598.3906,1427.416,594.3906" style="stroke:#181818;stroke-width:1;stroke-linejoin:miter;stroke-miterlimit:10;"/><line style="stroke:#181818;stroke-width:1;stroke-dasharray:2,2;" x1="1425.416" x2="1694.6128" y1="594.3906" y2="594.3906"/><text fill="#000000" font-family="sans-serif" font-size="13" font-weight="700" lengthAdjust="spacing" textLength="18.0908" x="1437.416" y="589.3247">11</text><text fill="#000000" font-family="sans-serif" font-size="13" lengthAdjust="spacing" textLength="229.106" x="1459.5068" y="589.3247">legs, duration, distance, polyline(s)</text></g><g class="message" data-entity-1="part6" data-entity-2="part4" data-source-line="36" id="msg12"><polygon fill="#181818" points="850.4375,619.5234,840.4375,623.5234,850.4375,627.5234,846.4375,623.5234" style="stroke:#181818;stroke-width:1;stroke-linejoin:miter;stroke-miterlimit:10;"/><line style="stroke:#181818;stroke-width:1;stroke-dasharray:2,2;" x1="844.4375" x2="1419.416" y1="623.5234" y2="623.5234"/><text fill="#000000" font-family="sans-serif" font-size="13" font-weight="700" lengthAdjust="spacing" textLength="18.0908" x="856.4375" y="618.4575">12</text><text fill="#000000" font-family="sans-serif" font-size="13" lengthAdjust="spacing" textLength="108.3228" x="878.5283" y="618.4575">aggregate result</text></g><g class="message" data-entity-1="part4" data-entity-2="part5" data-source-line="37" id="msg13"><polygon fill="#181818" points="1220.5801,648.6563,1230.5801,652.6563,1220.5801,656.6563,1224.5801,652.6563" style="stroke:#181818;stroke-width:1;stroke-linejoin:miter;stroke-miterlimit:10;"/><line style="stroke:#181818;stroke-width:1;" x1="839.4375" x2="1226.5801" y1="652.6563" y2="652.6563"/><text fill="#000000" font-family="sans-serif" font-size="13" font-weight="700" lengthAdjust="spacing" textLength="18.0908" x="846.4375" y="647.5903">13</text><text fill="#000000" font-family="sans-serif" font-size="13" lengthAdjust="spacing" textLength="347.0518" x="868.5283" y="647.5903">transaction: update order, legs, totals and polyline(s)</text></g><g class="message" data-entity-1="part4" data-entity-2="part3" data-source-line="38" id="msg14"><polygon fill="#181818" points="651.25,677.7891,641.25,681.7891,651.25,685.7891,647.25,681.7891" style="stroke:#181818;stroke-width:1;stroke-linejoin:miter;stroke-miterlimit:10;"/><line style="stroke:#181818;stroke-width:1;stroke-dasharray:2,2;" x1="645.25" x2="838.4375" y1="681.7891" y2="681.7891"/><text fill="#000000" font-family="sans-serif" font-size="13" font-weight="700" lengthAdjust="spacing" textLength="18.0908" x="657.25" y="676.7231">14</text><text fill="#000000" font-family="sans-serif" font-size="13" lengthAdjust="spacing" textLength="92.8218" x="679.3408" y="676.7231">updated route</text></g><g class="message" data-entity-1="part3" data-entity-2="part2" data-source-line="39" id="msg15"><polygon fill="#181818" points="377.2783,706.9219,367.2783,710.9219,377.2783,714.9219,373.2783,710.9219" style="stroke:#181818;stroke-width:1;stroke-linejoin:miter;stroke-miterlimit:10;"/><line style="stroke:#181818;stroke-width:1;stroke-dasharray:2,2;" x1="371.2783" x2="639.25" y1="710.9219" y2="710.9219"/><text fill="#000000" font-family="sans-serif" font-size="13" font-weight="700" lengthAdjust="spacing" textLength="18.0908" x="383.2783" y="705.856">15</text><text fill="#000000" font-family="sans-serif" font-size="13" lengthAdjust="spacing" textLength="191.75" x="405.3691" y="705.856">redirect with fresh route data</text></g><g class="message" data-entity-1="part2" data-entity-2="part1" data-source-line="40" id="msg16"><polygon fill="#181818" points="34.9551,736.0547,24.9551,740.0547,34.9551,744.0547,30.9551,740.0547" style="stroke:#181818;stroke-width:1;stroke-linejoin:miter;stroke-miterlimit:10;"/><line style="stroke:#181818;stroke-width:1;stroke-dasharray:2,2;" x1="28.9551" x2="365.2783" y1="740.0547" y2="740.0547"/><text fill="#000000" font-family="sans-serif" font-size="13" font-weight="700" lengthAdjust="spacing" textLength="18.0908" x="40.9551" y="734.9888">16</text><text fill="#000000" font-family="sans-serif" font-size="13" lengthAdjust="spacing" textLength="296.2324" x="63.0459" y="734.9888">updated order, totals and road-following map</text></g><path d="M765,753.0547 L765,793.0547 L1768,793.0547 L1768,763.0547 L1758,753.0547 L765,753.0547" fill="#FEFFDD" style="stroke:#181818;stroke-width:0.5;"/><path d="M1758,753.0547 L1758,763.0547 L1768,763.0547 L1758,753.0547" fill="#FEFFDD" style="stroke:#181818;stroke-width:0.5;"/><text fill="#000000" font-family="sans-serif" font-size="13" lengthAdjust="spacing" textLength="308.5342" x="1035.6609" y="770.1216">Geocoding cache reduces address lookup calls.</text><text fill="#000000" font-family="sans-serif" font-size="13" lengthAdjust="spacing" textLength="453.6733" x="1035.6609" y="785.2544">It cannot remove the Routes API call required after the path changes.</text><?plantuml-src bLHDJnin4BtxLunw0YaGjKSEbH1458agQO7UXxMpQ-5ujluWfB--pzvT9LIXQazhhzyyZz-ycMIJCtGTP2EHpcYXRIAco2z6Kv2S3B77oZJickoux7EI3IUBFswdoixdpPC9AZvRttFW3SMEjMojRsdDBXgbk4aIw342zIJPQmux-l2zqcybFCUU6_E1EDBZhMh4fo2Ewl7AiRyQVZW4JsTZx2Od92AUm8zFPRYiIwKvyHD7Grztzz_k5F92nhPddyRWPP_inluoWUPqDJrk6RG9HbT0PPjE9Bobk15feLi5uixLRKKFM-oKAc-biyzu45r0NcxdEaW_eusyc1cnrZFAlIvwGXXjd2dAKapIAuGWyCZpmRIwVBZwCbyjxn_crukxnSDYB9BnkXVhapeMzYxR3tQsve32vV-ClSofam01nmnawqs8dUtVenaAWqZpQXeWJchSZ9gEVMjEbHe1WDQQ0Uc43rreNcrCnLL59cf4WhOUwKVb1P1WsowHhCUI4ptwWLlNW0WNPnW2QvJuCFmSsALtEnJ0cstvQWq42ZF5uqSmCUBOw4YjaKOGsvuhw4xbSbZS9PeyDIODslsRzax2m_RTrEGG31orbj3KEtLrfFGbBeBX86wgHN4OICGNxLcV3Ge5ypERc9H1nz5zsVXasVrxAjP3ONGIvUBTcWd2d43h1JSTmRd1ST_N2fY13MfpWgbZee-Vg5gm9Fstj8-aJCM_HKkbziYpFpDrfeqpqZdKdiSARc3Vm4Azk9sptfp4KtLuyQ7hk6s3QRdU6hDBH-oM0liuZ9ABVNT2XjbuTvA4ULQzU7ZbnFHkhmnSaokEziSqAc1DYscRQ6jJHslaseqTK2PQdGq56j_mZaaUf5T5NeDx6CCRxjNG9AM8eoYp_RWYkfay3KCqNH59vmQZRN8-RF2S--8ML_lbDc7jGGbacMcKkiDnM86rlhOq6wyJhYsGdl6ieQtYldr-0m00?></g></svg>